<svg width="34" height="34" viewBox="0 0 34 34" fill="none" xmlns="http://www.w3.org/2000/svg">
<g clip-path="url(#clip0_72_14)">
<path d="M17 0C13.6377 0 10.3509 0.997033 7.55531 2.86502C4.75968 4.733 2.58075 7.38804 1.29406 10.4944C0.00736578 13.6007 -0.329291 17.0189 0.326658 20.3165C0.982607 23.6142 2.6017 26.6433 4.97919 29.0208C7.35669 31.3983 10.3858 33.0174 13.6835 33.6733C16.9811 34.3293 20.3993 33.9926 23.5056 32.706C26.612 31.4193 29.267 29.2403 31.135 26.4447C33.003 23.6491 34 20.3623 34 17C33.9951 12.4928 32.2024 8.17167 29.0154 4.98462C25.8283 1.79757 21.5072 0.00492165 17 0ZM17 32.9375C13.8479 32.9375 10.7665 32.0028 8.14561 30.2515C5.5247 28.5003 3.48195 26.0112 2.27568 23.099C1.06941 20.1868 0.75379 16.9823 1.36874 13.8907C1.98369 10.7992 3.50159 7.95938 5.73049 5.73049C7.95939 3.50159 10.7992 1.98369 13.8908 1.36873C16.9823 0.753783 20.1868 1.0694 23.099 2.27567C26.0112 3.48194 28.5003 5.52469 30.2516 8.1456C32.0028 10.7665 32.9375 13.8479 32.9375 17C32.9326 21.2254 31.2519 25.2763 28.2641 28.2641C25.2763 31.2519 21.2254 32.9326 17 32.9375Z" fill="#414040"/>
<path d="M25.2344 16.4688H17.5312V8.76562C17.5312 8.62473 17.4753 8.4896 17.3757 8.38997C17.276 8.29035 17.1409 8.23438 17 8.23438C16.8591 8.23438 16.724 8.29035 16.6243 8.38997C16.5247 8.4896 16.4688 8.62473 16.4688 8.76562V16.4688H8.76562C8.62473 16.4688 8.4896 16.5247 8.38997 16.6243C8.29035 16.724 8.23438 16.8591 8.23438 17C8.23438 17.1409 8.29035 17.276 8.38997 17.3757C8.4896 17.4753 8.62473 17.5312 8.76562 17.5312H16.4688V25.2344C16.4688 25.3753 16.5247 25.5104 16.6243 25.61C16.724 25.7097 16.8591 25.7656 17 25.7656C17.1409 25.7656 17.276 25.7097 17.3757 25.61C17.4753 25.5104 17.5312 25.3753 17.5312 25.2344V17.5312H25.2344C25.3753 17.5312 25.5104 17.4753 25.61 17.3757C25.7097 17.276 25.7656 17.1409 25.7656 17C25.7656 16.8591 25.7097 16.724 25.61 16.6243C25.5104 16.5247 25.3753 16.4688 25.2344 16.4688Z" fill="#414040"/>
</g>
<defs>
<clipPath id="clip0_72_14">
<rect width="34" height="34" fill="white"/>
</clipPath>
</defs>
</svg>
