<svg width="24" height="27" viewBox="0 0 24 27" fill="none" xmlns="http://www.w3.org/2000/svg">
<path d="M23.9299 4.17764C23.3741 2.07164 19.237 0 12 0C4.76304 0 0.62544 2.07164 0.07008 4.17764C0.02976 4.2498 0 4.32884 0 4.41818V4.66364V10.3091V10.5545V10.8V16.2V16.4455V16.6909V22.5818C0 22.6613 0.02064 22.7365 0.05616 22.8032C0.62304 25.2062 5.69472 27 12 27C18.2909 27 23.3544 25.2136 23.94 22.8194C23.9784 22.7492 24 22.6682 24 22.5818V16.6909V16.4455V16.2V10.8V10.5545V10.3091V4.66364V4.41818C24 4.32884 23.9702 4.2498 23.9299 4.17764ZM23.0021 16.6835C22.9886 16.7429 22.9699 16.8019 22.9464 16.8617C22.9272 16.9103 22.9037 16.9589 22.8778 17.0075C22.8456 17.0679 22.8096 17.1283 22.7669 17.1887C22.7352 17.2343 22.6992 17.2795 22.6618 17.3247C22.6085 17.389 22.5518 17.4533 22.4875 17.5171C22.4486 17.5559 22.4059 17.5942 22.3627 17.633C22.284 17.7032 22.2019 17.7729 22.1102 17.8421C22.0709 17.872 22.0286 17.901 21.9869 17.9305C21.8784 18.007 21.7651 18.0831 21.6408 18.1577C21.6082 18.1779 21.5731 18.197 21.539 18.2167C21.396 18.2991 21.2467 18.3811 21.0854 18.4606C21.0648 18.4709 21.0432 18.4808 21.0221 18.4906C20.8421 18.5775 20.6539 18.6629 20.4528 18.7454C20.447 18.7478 20.4413 18.7498 20.4355 18.7522C19.3454 19.1975 17.951 19.5721 16.3262 19.8175C16.3181 19.8185 16.3099 19.8195 16.3018 19.8209C15.9859 19.8686 15.6619 19.9108 15.3293 19.9481C15.275 19.954 15.2179 19.9579 15.1632 19.9638C14.8728 19.9947 14.579 20.0232 14.2766 20.0458C14.1384 20.0561 13.9934 20.061 13.8528 20.0698C13.6253 20.0836 13.4002 20.0988 13.1669 20.1071C12.7858 20.1194 12.397 20.1273 12 20.1273C11.603 20.1273 11.2142 20.1194 10.8326 20.1057C10.5994 20.0973 10.3742 20.0816 10.1467 20.0684C10.0061 20.06 9.86112 20.0546 9.72288 20.0443C9.42048 20.0217 9.12672 19.9933 8.83632 19.9623C8.7816 19.9564 8.72448 19.9525 8.67024 19.9466C8.3376 19.9093 8.0136 19.8666 7.69776 19.8195C7.6896 19.8185 7.68144 19.8175 7.67328 19.816C6.04848 19.5706 4.65408 19.196 3.564 18.7508C3.55824 18.7488 3.55248 18.7463 3.54672 18.7439C3.3456 18.6614 3.15696 18.576 2.97744 18.4891C2.9568 18.4788 2.93472 18.469 2.91408 18.4592C2.7528 18.3796 2.60352 18.2981 2.46048 18.2152C2.42688 18.1955 2.39136 18.1764 2.35872 18.1563C2.2344 18.0817 2.12112 18.0056 2.01264 17.929C1.97136 17.8995 1.92864 17.8706 1.88928 17.8406C1.7976 17.7714 1.71552 17.7017 1.6368 17.6315C1.59408 17.5932 1.55088 17.5549 1.512 17.5156C1.44768 17.4518 1.39104 17.388 1.33776 17.3232C1.30032 17.278 1.26432 17.2329 1.23264 17.1872C1.1904 17.1268 1.1544 17.0665 1.12176 17.0061C1.09584 16.9575 1.0728 16.9089 1.05312 16.8603C1.0296 16.8009 1.01088 16.7415 0.99744 16.6821C0.97968 16.604 0.96 16.5245 0.96 16.4455C0.96 16.39 0.96624 16.3345 0.97488 16.2795C0.98688 16.2054 0.98016 16.1313 0.96 16.0611V12.4166C0.97344 12.4293 0.99024 12.4416 1.00416 12.4544C1.1088 12.5486 1.21536 12.6424 1.33536 12.7327C3.14352 14.1313 6.75936 15.2182 12 15.2182C17.2186 15.2182 20.8253 14.1401 22.6411 12.7499C22.7861 12.6419 22.9166 12.5305 23.0395 12.4171L23.04 12.4166V16.0611C23.0198 16.1313 23.0131 16.2054 23.0251 16.2795C23.0342 16.3345 23.04 16.39 23.04 16.4455C23.04 16.5245 23.0203 16.604 23.0021 16.6835ZM23.04 6.52565V10.1702C23.0198 10.2404 23.0131 10.3145 23.0251 10.3886C23.0342 10.4436 23.04 10.4991 23.04 10.5545C23.04 10.6336 23.0203 10.7131 23.0021 10.7926C22.9886 10.852 22.9699 10.9109 22.9464 10.9708C22.9272 11.0194 22.9037 11.068 22.8778 11.1166C22.8456 11.177 22.8096 11.2374 22.7669 11.2978C22.7352 11.3434 22.6992 11.3886 22.6618 11.4338C22.6085 11.4981 22.5518 11.5624 22.4875 11.6262C22.4486 11.665 22.4059 11.7033 22.3627 11.7421C22.284 11.8123 22.2019 11.882 22.1102 11.9512C22.0709 11.9811 22.0286 12.0101 21.9869 12.0395C21.8784 12.1161 21.7651 12.1922 21.6408 12.2668C21.6082 12.287 21.5731 12.3061 21.539 12.3257C21.396 12.4082 21.2467 12.4902 21.0854 12.5697C21.0648 12.58 21.0432 12.5899 21.0221 12.5997C20.8421 12.6866 20.6539 12.772 20.4528 12.8545C20.447 12.8569 20.4413 12.8589 20.4355 12.8613C19.3454 13.3066 17.951 13.6811 16.3262 13.9266C16.3181 13.9276 16.3099 13.9286 16.3018 13.93C15.9859 13.9777 15.6619 14.0199 15.3293 14.0572C15.275 14.0631 15.2179 14.067 15.1632 14.0729C14.8728 14.1038 14.579 14.1323 14.2766 14.1549C14.1384 14.1652 13.9934 14.1701 13.8528 14.1789C13.6253 14.1927 13.4002 14.2079 13.1669 14.2162C12.7858 14.2285 12.397 14.2364 12 14.2364C11.603 14.2364 11.2142 14.2285 10.8326 14.2148C10.5994 14.2064 10.3742 14.1907 10.1467 14.1775C10.0061 14.1691 9.86112 14.1637 9.72288 14.1534C9.42048 14.1308 9.12672 14.1023 8.83632 14.0714C8.7816 14.0655 8.72448 14.0616 8.67024 14.0557C8.3376 14.0184 8.0136 13.9757 7.69776 13.9286C7.6896 13.9276 7.68144 13.9266 7.67328 13.9251C6.04848 13.6797 4.65408 13.3051 3.564 12.8599C3.55824 12.8579 3.55248 12.8554 3.54672 12.853C3.3456 12.7705 3.15696 12.6851 2.97744 12.5982C2.9568 12.5879 2.93472 12.5781 2.91408 12.5683C2.7528 12.4887 2.60352 12.4072 2.46048 12.3243C2.42688 12.3046 2.39136 12.2855 2.35872 12.2654C2.2344 12.1907 2.12112 12.1147 2.01264 12.0381C1.97136 12.0086 1.92864 11.9797 1.88928 11.9497C1.7976 11.8805 1.71552 11.8108 1.6368 11.7406C1.59408 11.7023 1.55088 11.664 1.512 11.6247C1.44768 11.5609 1.39104 11.4971 1.33776 11.4323C1.30032 11.3871 1.26432 11.342 1.23264 11.2963C1.1904 11.2359 1.1544 11.1755 1.12176 11.1152C1.09584 11.0666 1.0728 11.018 1.05312 10.9694C1.0296 10.91 1.01088 10.8506 0.99744 10.7912C0.97968 10.7131 0.96 10.6336 0.96 10.5545C0.96 10.4991 0.96624 10.4436 0.97488 10.3886C0.98688 10.3145 0.98016 10.2404 0.96 10.1702V6.52565C1.0176 6.57916 1.08336 6.63169 1.14576 6.68471C1.18032 6.71416 1.21248 6.74362 1.24896 6.77307C1.39296 6.88893 1.54848 7.00331 1.71696 7.11475C1.752 7.13782 1.79136 7.1604 1.82784 7.18347C1.96896 7.27331 2.11824 7.36118 2.2752 7.44758C2.33328 7.47949 2.39136 7.51091 2.45136 7.54233C2.62656 7.63364 2.8104 7.72249 3.00384 7.8084C3.03552 7.82264 3.06432 7.83736 3.09648 7.85111C3.3216 7.9488 3.56064 8.04207 3.80928 8.1324C3.87792 8.15744 3.94992 8.181 4.02048 8.20555C4.21824 8.27378 4.42272 8.33907 4.6344 8.4024C4.71072 8.42498 4.7856 8.44855 4.86384 8.47015C5.14464 8.54967 5.43456 8.62527 5.73888 8.69498C5.78064 8.7048 5.82576 8.71266 5.868 8.72198C6.13632 8.78187 6.41472 8.83735 6.7008 8.88938C6.79776 8.90705 6.89616 8.92375 6.99504 8.94044C7.2672 8.98609 7.54752 9.02782 7.83504 9.06611C7.90896 9.07593 7.97952 9.08722 8.0544 9.09655C8.41152 9.14073 8.78112 9.17853 9.1608 9.21093C9.2544 9.21878 9.35184 9.22467 9.44688 9.23155C9.75072 9.25413 10.0613 9.27278 10.379 9.28751C10.4947 9.29291 10.6099 9.29831 10.728 9.30273C11.1418 9.31696 11.5632 9.32727 12 9.32727C12.4368 9.32727 12.8582 9.31696 13.272 9.30273C13.3896 9.29831 13.5048 9.29291 13.621 9.28751C13.9387 9.27278 14.2493 9.25413 14.5531 9.23155C14.6482 9.22418 14.7451 9.21878 14.8392 9.21093C15.2189 9.17902 15.5885 9.14073 15.9456 9.09655C16.0205 9.08722 16.091 9.07593 16.165 9.06611C16.4525 9.02782 16.7323 8.98609 17.005 8.94044C17.1038 8.92375 17.2022 8.90705 17.2992 8.88938C17.5853 8.83735 17.8637 8.78187 18.132 8.72198C18.1742 8.71266 18.2194 8.70431 18.2611 8.69498C18.5654 8.62527 18.8554 8.54918 19.1362 8.47015C19.2144 8.44805 19.2893 8.42498 19.3656 8.4024C19.5773 8.33907 19.7818 8.27378 19.9795 8.20555C20.0501 8.181 20.1221 8.15744 20.1907 8.1324C20.4394 8.04207 20.6789 7.9488 20.9035 7.85111C20.9357 7.83736 20.9645 7.82264 20.9962 7.8084C21.1896 7.722 21.3734 7.63364 21.5486 7.54233C21.6086 7.51091 21.6672 7.47949 21.7248 7.44758C21.8818 7.36167 22.031 7.2738 22.1722 7.18347C22.2086 7.1604 22.248 7.13782 22.283 7.11475C22.4515 7.00331 22.607 6.88942 22.751 6.77307C22.787 6.74362 22.8192 6.71416 22.8542 6.68471C22.9166 6.63169 22.9824 6.57916 23.04 6.52565ZM12 0.981818C18.5064 0.981818 23.04 2.92189 23.04 4.66364C23.04 6.40538 18.5064 8.34546 12 8.34546C5.4936 8.34546 0.96 6.40538 0.96 4.66364C0.96 2.92189 5.4936 0.981818 12 0.981818ZM23.04 22.436C23.0333 22.4576 23.0285 22.4797 23.0246 22.5023C22.7525 24.2003 18.2573 26.0182 12 26.0182C5.74272 26.0182 1.24752 24.2003 0.97536 22.5023C0.97152 22.4802 0.96624 22.4586 0.96 22.438V18.3075C0.97344 18.3202 0.99024 18.3325 1.00416 18.3453C1.1088 18.4395 1.21536 18.5333 1.33536 18.6236C3.14352 20.0222 6.75936 21.1091 12 21.1091C17.2186 21.1091 20.8253 20.0311 22.6411 18.6408C22.7861 18.5328 22.9166 18.4214 23.0395 18.308L23.04 18.3075V22.436Z" fill="#414040"/>
</svg>
