<svg width="31" height="32" viewBox="0 0 31 32" fill="none" xmlns="http://www.w3.org/2000/svg">
<path d="M0.0463681 11.0732C0.751874 8.92336 1.91405 6.9499 3.44752 5.27744C3.70682 4.99463 4.11365 4.89382 4.47788 5.02216L8.14257 6.31326C9.1361 6.66311 10.2294 6.1531 10.5844 5.17413C10.6193 5.07786 10.6462 4.97897 10.6648 4.87856L11.363 1.10255C11.4324 0.727122 11.725 0.430144 12.1038 0.350677C13.2122 0.118226 14.3487 0 15.5 0C16.6506 0 17.7864 0.118093 18.8941 0.35025C19.2729 0.429637 19.5655 0.726429 19.635 1.10173L20.3352 4.8784C20.5245 5.90112 21.5192 6.579 22.5573 6.39251C22.6595 6.37416 22.7598 6.34767 22.8573 6.31331L26.5221 5.02216C26.8863 4.89382 27.293 4.99463 27.5524 5.27744C29.0859 6.9499 30.248 8.92336 30.9537 11.0732C31.0726 11.4359 30.9578 11.8336 30.6629 12.0802L27.6925 14.5651C26.8884 15.238 26.79 16.4259 27.4728 17.2184C27.54 17.2963 27.6135 17.3687 27.6925 17.4348L30.6629 19.9197C30.9578 20.1664 31.0726 20.564 30.9537 20.9268C30.248 23.0767 29.0859 25.0502 27.5524 26.7225C27.293 27.0053 26.8863 27.1061 26.5221 26.9778L22.8573 25.6867C21.864 25.337 20.7706 25.847 20.4156 26.8257C20.3807 26.922 20.3538 27.021 20.3351 27.1218L19.635 30.8983C19.5655 31.2736 19.2729 31.5703 18.8941 31.6497C17.7864 31.8818 16.6506 32 15.5 32C14.3487 32 13.2122 31.8818 12.1038 31.6492C11.725 31.5697 11.4324 31.2728 11.363 30.8975L10.6648 27.1216C10.4755 26.0988 9.48066 25.421 8.4427 25.6075C8.34062 25.6259 8.24026 25.6523 8.14273 25.6867L4.47788 26.9778C4.11365 27.1061 3.70682 27.0053 3.44752 26.7225C1.91405 25.0502 0.751874 23.0767 0.0463681 20.9268C-0.0726448 20.564 0.0421085 20.1664 0.33704 19.9197L3.30738 17.4348C4.11162 16.7619 4.20999 15.5741 3.5271 14.7816C3.45995 14.7037 3.38647 14.6313 3.3074 14.5652L0.33704 12.0802C0.0421085 11.8336 -0.0726448 11.4359 0.0463681 11.0732ZM10.7823 15.9998C10.7823 18.578 12.8943 20.6681 15.4997 20.6681C18.105 20.6681 20.2171 18.578 20.2171 15.9998C20.2171 13.4216 18.105 11.3316 15.4997 11.3316C12.8943 11.3316 10.7823 13.4216 10.7823 15.9998Z" fill="#414040"/>
</svg>
